<?xml version="1.0" encoding="utf-8"?>
<svg id="master-artboard" viewBox="0 0 500 500" version="1.1" xmlns="http://www.w3.org/2000/svg" x="0px" y="0px" style="enable-background:new 0 0 500 500;" width="500px" height="500px"><defs><linearGradient id="gradient-0" gradientUnits="userSpaceOnUse" x1="63.05867671966553" y1="87" x2="63.05867671966553" y2="117.67246437072754" gradientTransform="matrix(0.98590491109994, -0.16730488587794795, 0.07887319879780146, 0.46478907922566, -8.392382042477674, 73.52961185656136)">
                <stop offset="0" style="stop-color: #082742"/>
                <stop offset="1" style="stop-color: #000000"/>
              </linearGradient><linearGradient id="gradient-1" gradientUnits="objectBoundingBox" x1="0.5" y1="0" x2="0.5" y2="1" gradientTransform="matrix(0.9561737775802612, -0.210074782371521, 0.292466938495636, 0.6852458715438843, -0.2705538272857666, 0.41979146003723145)">
                <stop offset="0" style="stop-color: #006a4e"/>
                <stop offset="1" style="stop-color: #000403"/>
              </linearGradient><linearGradient id="gradient-2" gradientUnits="objectBoundingBox" x1="0.5" y1="0" x2="0.5" y2="1" gradientTransform="matrix(0.7633864420298266, -0.4634439316791088, 0.45240962464112355, 0.3836063316846561, -0.15588092316718472, 0.6284433234117488)">
                <stop offset="0" style="stop-color: #0f4c81"/>
                <stop offset="1" style="stop-color: #041625"/>
              </linearGradient><style id="ee-google-fonts">@import url(https://fonts.googleapis.com/css?family=Allerta:400);</style><linearGradient id="gradient-3" gradientUnits="userSpaceOnUse" x1="63.058860778808594" y1="87" x2="63.058860778808594" y2="117.77288246154785" gradientTransform="matrix(0.7769930242527464, -0.6295089332751933, 0.5737703224999673, 0.7081965466135312, -44.027933204973095, 75.87874957012157)">
                <stop offset="0" style="stop-color: #006a4e"/>
                <stop offset="1" style="stop-color: #000403"/>
              </linearGradient><linearGradient id="gradient-4" gradientUnits="userSpaceOnUse" x1="72.44207000732422" y1="84.6794204711914" x2="72.44207000732422" y2="115.45230102539062" gradientTransform="matrix(0.857492928533124, -0.51449585629024, 0.3344262734032765, 0.5573768744128804, -28.28677554001251, 88.37300317593915)">
                <stop offset="0" style="stop-color: #006a4e"/>
                <stop offset="1" style="stop-color: #000403"/>
              </linearGradient><linearGradient id="gradient-5" gradientUnits="objectBoundingBox" x1="0.6389744877815247" y1="-0.41818174719810486" x2="0.6389744877815247" y2="0.5818182229995728" gradientTransform="matrix(0.805437680582007, -0.42646573542341853, 0.16424275540639266, 0.16060604276483972, 0.028760910546230964, 0.7608754335469182)">
                <stop offset="0" style="stop-color: #6667ab"/>
                <stop offset="1" style="stop-color: #3d3d6e"/>
              </linearGradient></defs><rect id="ee-background" x="0" y="0" width="419.6074523925781" height="900" style="fill: white; fill-opacity: 0; pointer-events: none;"/><path d="M 65.4295654296875 69.72999572753906 L 59.899566650390625 78.61000061035156 L 65.89956665039062 87 L 62.639564514160156 87 L 57.059566497802734 78.80000305175781 L 57.059566497802734 87 L 54.19956588745117 87 L 54.19956588745117 69.72999572753906 L 57.059566497802734 69.72999572753906 L 57.059566497802734 78.37000274658203 L 62.219566345214844 69.72999572753906 L 65.4295654296875 69.72999572753906 ZM 70.88558197021484 83.73999786376953 C 71.35224914550781 83.73999786376953 71.75225067138672 83.9000015258789 72.08558654785156 84.22000122070312 C 72.41224670410156 84.54000091552734 72.5755844116211 84.9366683959961 72.5755844116211 85.41000366210938 C 72.5755844116211 85.50333404541016 72.56891632080078 85.69000244140625 72.55558013916016 85.97000122070312 C 72.53558349609375 86.25 72.45891571044922 86.59666442871094 72.3255844116211 87.01000213623047 C 72.19225311279297 87.42333221435547 71.97891235351562 87.87333679199219 71.68558502197266 88.36000061035156 C 71.38558197021484 88.84666442871094 70.94891357421875 89.33000183105469 70.37557983398438 89.80999755859375 L 69.26557922363281 89.80999755859375 C 69.57891845703125 89.49666595458984 69.83891296386719 89.18000030517578 70.04558563232422 88.86000061035156 C 70.2455825805664 88.54000091552734 70.4089126586914 88.24666595458984 70.53558349609375 87.9800033569336 C 70.67558288574219 87.67333221435547 70.79225158691406 87.37666320800781 70.88558197021484 87.08999633789062 C 70.4322509765625 87.08999633789062 70.04225158691406 86.92666625976562 69.71558380126953 86.5999984741211 C 69.388916015625 86.27333068847656 69.2255859375 85.87666320800781 69.2255859375 85.41000366210938 C 69.2255859375 84.9566650390625 69.38558197021484 84.5633316040039 69.70558166503906 84.2300033569336 C 70.02558135986328 83.90333557128906 70.41891479492188 83.73999786376953 70.88558197021484 83.73999786376953 M 72.5755844116211 75.33000183105469 C 72.5755844116211 75.79666900634766 72.41224670410156 76.1933364868164 72.08558654785156 76.52000427246094 C 71.75225067138672 76.85333251953125 71.35224914550781 77.02000427246094 70.88558197021484 77.02000427246094 C 70.41891479492188 77.02000427246094 70.02558135986328 76.85333251953125 69.70558166503906 76.52000427246094 C 69.38558197021484 76.1933364868164 69.2255859375 75.79666900634766 69.2255859375 75.33000183105469 C 69.2255859375 74.8566665649414 69.388916015625 74.45999908447266 69.71558380126953 74.13999938964844 C 70.04225158691406 73.81999969482422 70.4322509765625 73.66000366210938 70.88558197021484 73.66000366210938 C 71.35224914550781 73.66000366210938 71.75225067138672 73.81999969482422 72.08558654785156 74.13999938964844 C 72.41224670410156 74.45999908447266 72.5755844116211 74.8566665649414 72.5755844116211 75.33000183105469 Z" transform="matrix(16.599929809570312, 0, 0, 16.599929809570312, -832.0110473632812, -1080.84521484375)" style="fill: url('#gradient-5'); white-space: pre; color: rgb(98, 75, 130); stroke: rgb(148, 150, 247); -webkit-text-stroke: rgb(206, 255, 184); stroke-width: 2; paint-order: stroke; fill-opacity: 1;"/></svg>