<?xml version="1.0" encoding="utf-8"?>
<svg id="master-artboard" viewBox="0 0 500 500" version="1.1" xmlns="http://www.w3.org/2000/svg" x="0px" y="0px" style="enable-background:new 0 0 500 500;" width="500px" height="500px"><defs><linearGradient id="gradient-0" gradientUnits="userSpaceOnUse" x1="63.05867671966553" y1="87" x2="63.05867671966553" y2="117.67246437072754" gradientTransform="matrix(0.98590491109994, -0.16730488587794795, 0.07887319879780146, 0.46478907922566, -8.392382042477674, 73.52961185656136)">
                <stop offset="0" style="stop-color: #082742"/>
                <stop offset="1" style="stop-color: #000000"/>
              </linearGradient><linearGradient id="gradient-1" gradientUnits="objectBoundingBox" x1="0.5" y1="0" x2="0.5" y2="1" gradientTransform="matrix(0.9561737775802612, -0.210074782371521, 0.292466938495636, 0.6852458715438843, -0.2705538272857666, 0.41979146003723145)">
                <stop offset="0" style="stop-color: #006a4e"/>
                <stop offset="1" style="stop-color: #000403"/>
              </linearGradient><linearGradient id="gradient-2" gradientUnits="objectBoundingBox" x1="0.5" y1="0" x2="0.5" y2="1" gradientTransform="matrix(0.7633864420298266, -0.4634439316791088, 0.45240962464112355, 0.3836063316846561, -0.15588092316718472, 0.6284433234117488)">
                <stop offset="0" style="stop-color: #0f4c81"/>
                <stop offset="1" style="stop-color: #041625"/>
              </linearGradient><style id="ee-google-fonts">@import url(https://fonts.googleapis.com/css?family=Allerta:400);</style><linearGradient id="gradient-3" gradientUnits="userSpaceOnUse" x1="63.058860778808594" y1="87" x2="63.058860778808594" y2="117.77288246154785" gradientTransform="matrix(0.7769930242527464, -0.6295089332751933, 0.5737703224999673, 0.7081965466135312, -44.027933204973095, 75.87874957012157)">
                <stop offset="0" style="stop-color: #006a4e"/>
                <stop offset="1" style="stop-color: #000403"/>
              </linearGradient><linearGradient id="gradient-4" gradientUnits="userSpaceOnUse" x1="72.44207000732422" y1="84.6794204711914" x2="72.44207000732422" y2="115.45230102539062" gradientTransform="matrix(0.857492928533124, -0.51449585629024, 0.3344262734032765, 0.5573768744128804, -28.28677554001251, 88.37300317593915)">
                <stop offset="0" style="stop-color: #006a4e"/>
                <stop offset="1" style="stop-color: #000403"/>
              </linearGradient><linearGradient id="gradient-5" gradientUnits="userSpaceOnUse" x1="75.06108856201172" y1="87.92326354980469" x2="75.06108856201172" y2="118.59614562988281" gradientTransform="matrix(0.7785084456131152, -0.627634292401144, 0.34782603607465523, 0.43143868906712957, -29.036580368088888, 110.94964125706657)">
                <stop offset="0" style="stop-color: #008080"/>
                <stop offset="1" style="stop-color: #001a1a"/>
              </linearGradient><linearGradient id="gradient-6" gradientUnits="objectBoundingBox" x1="1.0094959735870361" y1="-0.07238342612981796" x2="1.0094959735870361" y2="0.9276167154312134" gradientTransform="matrix(0.8825133180314451, -0.3385099995117837, 0.3763614663758942, 0.5083611856665127, -0.3636514861941826, 0.8300264959124971)">
                <stop offset="0" style="stop-color: #004d4d"/>
                <stop offset="1" style="stop-color: #000000"/>
              </linearGradient><linearGradient id="gradient-7" gradientUnits="objectBoundingBox" x1="0.8903006315231323" y1="-0.053511686623096466" x2="0.8903006315231323" y2="0.9464884400367737" gradientTransform="matrix(0.9249125980636177, -0.27365092586774553, 0.31131140716112154, 0.5451504628724484, -0.3253773976235464, 0.6340076378626481)">
                <stop offset="0" style="stop-color: #008080"/>
                <stop offset="1" style="stop-color: #001a1a"/>
              </linearGradient></defs><rect id="ee-background" x="0" y="0" width="419.6074523925781" height="900" style="fill: white; fill-opacity: 0; pointer-events: none;"/><path d="M 65.4295654296875 69.72999572753906 L 59.899566650390625 78.61000061035156 L 65.89956665039062 87 L 62.639564514160156 87 L 57.059566497802734 78.80000305175781 L 57.059566497802734 87 L 54.19956588745117 87 L 54.19956588745117 69.72999572753906 L 57.059566497802734 69.72999572753906 L 57.059566497802734 78.37000274658203 L 62.219566345214844 69.72999572753906 L 65.4295654296875 69.72999572753906 ZM 70.88497161865234 83.73999786376953 C 71.35163879394531 83.73999786376953 71.75164031982422 83.9000015258789 72.08497619628906 84.22000122070312 C 72.41163635253906 84.54000091552734 72.5749740600586 84.9366683959961 72.5749740600586 85.41000366210938 C 72.5749740600586 85.50333404541016 72.56830596923828 85.69000244140625 72.55496978759766 85.97000122070312 C 72.53497314453125 86.25 72.45830535888672 86.59666442871094 72.3249740600586 87.01000213623047 C 72.19164276123047 87.42333221435547 71.97830200195312 87.87333679199219 71.68497467041016 88.36000061035156 C 71.38497161865234 88.84666442871094 70.94830322265625 89.33000183105469 70.37496948242188 89.80999755859375 L 69.26496887207031 89.80999755859375 C 69.57830810546875 89.49666595458984 69.83830261230469 89.18000030517578 70.04497528076172 88.86000061035156 C 70.2449722290039 88.54000091552734 70.4083023071289 88.24666595458984 70.53497314453125 87.9800033569336 C 70.67497253417969 87.67333221435547 70.79164123535156 87.37666320800781 70.88497161865234 87.08999633789062 C 70.431640625 87.08999633789062 70.04164123535156 86.92666625976562 69.71497344970703 86.5999984741211 C 69.3883056640625 86.27333068847656 69.2249755859375 85.87666320800781 69.2249755859375 85.41000366210938 C 69.2249755859375 84.9566650390625 69.38497161865234 84.5633316040039 69.70497131347656 84.2300033569336 C 70.02497100830078 83.90333557128906 70.41830444335938 83.73999786376953 70.88497161865234 83.73999786376953 M 72.5749740600586 75.33000183105469 C 72.5749740600586 75.79666900634766 72.41163635253906 76.1933364868164 72.08497619628906 76.52000427246094 C 71.75164031982422 76.85333251953125 71.35163879394531 77.02000427246094 70.88497161865234 77.02000427246094 C 70.41830444335938 77.02000427246094 70.02497100830078 76.85333251953125 69.70497131347656 76.52000427246094 C 69.38497161865234 76.1933364868164 69.2249755859375 75.79666900634766 69.2249755859375 75.33000183105469 C 69.2249755859375 74.8566665649414 69.3883056640625 74.45999908447266 69.71497344970703 74.13999938964844 C 70.04164123535156 73.81999969482422 70.431640625 73.66000366210938 70.88497161865234 73.66000366210938 C 71.35163879394531 73.66000366210938 71.75164031982422 73.81999969482422 72.08497619628906 74.13999938964844 C 72.41163635253906 74.45999908447266 72.5749740600586 74.8566665649414 72.5749740600586 75.33000183105469 Z" transform="matrix(16.599929809570312, 0, 0, 16.599929809570312, -832.0110473632812, -1080.84521484375)" style="fill: url('#gradient-7'); white-space: pre; color: rgb(0, 204, 204); stroke: rgb(0, 204, 204); -webkit-text-stroke: rgb(206, 255, 184); stroke-width: 2; paint-order: stroke; fill-opacity: 1;"/></svg>